<svg id="Capa_1" enable-background="new 0 0 512.001 512.001" height="512" viewBox="0 0 512.001 512.001" width="512" xmlns="http://www.w3.org/2000/svg" xmlns:xlink="http://www.w3.org/1999/xlink"><linearGradient id="SVGID_1_" gradientUnits="userSpaceOnUse" x1="256" x2="256" y1="176.201" y2="58.909"><stop offset="0" stop-color="#addcff"/><stop offset=".5028" stop-color="#eaf6ff"/><stop offset="1" stop-color="#eaf6ff"/></linearGradient><linearGradient id="SVGID_2_" gradientUnits="userSpaceOnUse" x1="256" x2="256" y1="512.001" y2="0"><stop offset="0" stop-color="#5558ff"/><stop offset="1" stop-color="#00c0ff"/></linearGradient><g><g><g><path d="m256 58.909-80.816 8 50.146 100.292 17.17 9h22.25l21.921-9 50.145-100.292z" fill="url(#SVGID_1_)"/></g></g><g><g><path d="m386.607 4.394c-3.726-3.725-9.131-5.225-14.245-3.946l-116.362 29.091-116.361-29.091c-5.111-1.276-10.519.22-14.245 3.946s-5.224 9.133-3.946 14.245l30 120c1.311 5.243 5.34 9.375 10.548 10.817 5.259 1.457 10.827-.065 14.61-3.849l79.394-79.393 79.394 79.394c3.786 3.786 9.355 5.305 14.61 3.849 5.208-1.442 9.238-5.575 10.548-10.817l30-120c1.278-5.113-.219-10.52-3.945-14.246zm-99.936 162.807h-61.34l-44.075 236.046c-.713 3.819.083 7.767 2.222 11.01l60 91c2.776 4.209 7.48 6.743 12.523 6.743s9.747-2.534 12.523-6.743l60-91c2.139-3.244 2.936-7.191 2.222-11.01z" fill="url(#SVGID_2_)"/></g></g></g></svg>